<?xml version="1.0" standalone="no"?>
<!DOCTYPE svg PUBLIC "-//W3C//DTD SVG 20010904//EN"
 "http://www.w3.org/TR/2001/REC-SVG-20010904/DTD/svg10.dtd">
<svg version="1.0" xmlns="http://www.w3.org/2000/svg"
 width="4500.000000pt" height="4500.000000pt" viewBox="0 0 4500.000000 4500.000000"
 preserveAspectRatio="xMidYMid meet">
<metadata>
Created by potrace 1.14, written by Peter Selinger 2001-2017
</metadata>
<g transform="translate(0.000000,4500.000000) scale(0.100000,-0.100000)"
fill="#000000" stroke="none">
<path d="M16041 44891 c-5 -9 -27 -77 -50 -151 -23 -74 -49 -153 -56 -175 -17
-49 -171 -530 -192 -600 -8 -27 -21 -68 -29 -90 -19 -54 -270 -841 -299 -935
-12 -41 -43 -138 -68 -215 -48 -148 -165 -515 -224 -700 -19 -60 -45 -141 -58
-180 -13 -38 -49 -151 -80 -250 -31 -99 -79 -247 -105 -330 -27 -82 -67 -206
-89 -275 -73 -230 -192 -603 -236 -740 -24 -74 -75 -236 -115 -360 -39 -124
-89 -279 -110 -345 -40 -122 -174 -542 -237 -740 -75 -237 -135 -425 -168
-525 -18 -58 -68 -213 -110 -345 -42 -132 -98 -307 -125 -390 -49 -154 -121
-379 -261 -820 -44 -137 -88 -275 -99 -305 -22 -66 -83 -264 -82 -267 1 -2 -7
-23 -18 -48 -11 -25 -20 -47 -20 -50 0 -3 0 -6 -1 -7 0 -2 -2 -11 -4 -20 -2
-10 -26 -86 -53 -170 -28 -84 -68 -209 -90 -278 -22 -69 -62 -192 -88 -275
-27 -82 -49 -152 -49 -155 0 -3 -8 -27 -17 -55 -9 -27 -53 -165 -98 -305 -45
-140 -90 -280 -100 -310 -10 -30 -39 -122 -65 -205 -26 -82 -57 -181 -70 -220
-23 -69 -109 -339 -227 -710 -33 -104 -71 -221 -83 -260 -13 -38 -39 -119 -58
-180 -92 -290 -170 -535 -185 -580 -9 -27 -17 -52 -17 -55 -2 -8 -95 -300
-121 -375 -24 -72 -147 -456 -149 -465 0 -3 -6 -21 -12 -40 -33 -102 -109
-339 -168 -525 -37 -115 -94 -293 -127 -395 -33 -102 -61 -192 -63 -200 -2 -8
-10 -35 -18 -60 -9 -25 -48 -146 -87 -270 -114 -357 -160 -500 -185 -575 -13
-38 -28 -86 -33 -105 -9 -33 -123 -388 -232 -725 -26 -82 -78 -244 -115 -360
-36 -115 -90 -284 -120 -375 -29 -91 -83 -259 -119 -375 -37 -115 -73 -228
-81 -250 -7 -22 -24 -76 -38 -120 -14 -44 -51 -161 -83 -260 -32 -99 -59 -182
-59 -185 -1 -3 -21 -66 -45 -140 -24 -74 -44 -139 -46 -145 -1 -5 -25 -80 -52
-165 -28 -85 -78 -243 -112 -350 -34 -107 -74 -228 -87 -269 -14 -41 -26 -79
-28 -85 -1 -6 -4 -18 -7 -26 -6 -18 -23 -70 -128 -400 -45 -140 -89 -277 -98
-305 -9 -27 -16 -52 -17 -55 0 -3 -26 -84 -57 -180 -98 -303 -229 -712 -253
-790 -13 -41 -64 -203 -115 -360 -50 -157 -123 -384 -162 -505 -38 -121 -94
-296 -125 -390 -30 -93 -56 -177 -58 -185 -2 -8 -15 -49 -29 -90 -28 -88 -94
-292 -141 -440 -18 -58 -54 -170 -80 -250 -26 -80 -57 -179 -70 -220 -13 -41
-64 -201 -113 -355 -50 -154 -156 -485 -235 -735 -80 -250 -166 -520 -192
-600 -91 -284 -207 -645 -216 -675 -5 -16 -29 -91 -53 -165 -24 -74 -53 -164
-64 -200 -33 -104 -162 -510 -184 -575 -11 -33 -21 -67 -23 -76 -2 -8 -10 -32
-19 -52 -8 -21 -15 -41 -16 -45 0 -8 -43 -146 -116 -374 -57 -178 -145 -453
-193 -603 -72 -224 -123 -386 -146 -455 -126 -392 -159 -496 -161 -505 -1 -5
-9 -30 -17 -55 -16 -47 -109 -338 -242 -755 -42 -132 -112 -350 -155 -485 -44
-135 -129 -400 -189 -590 -61 -190 -119 -372 -129 -405 -55 -169 -145 -451
-146 -460 -1 -5 -18 -59 -38 -120 -38 -115 -89 -271 -208 -645 -39 -124 -80
-250 -90 -280 -10 -30 -28 -86 -40 -125 -12 -38 -54 -173 -95 -300 -164 -513
-236 -739 -295 -925 -34 -107 -68 -213 -75 -235 -13 -37 -56 -173 -148 -460
-100 -315 -190 -594 -200 -625 -6 -19 -12 -37 -12 -40 0 -3 -29 -93 -64 -200
-34 -107 -67 -211 -72 -230 -6 -19 -14 -44 -19 -55 -8 -19 -101 -308 -106
-330 -2 -8 -49 -157 -107 -335 -6 -19 -11 -37 -12 -40 0 -3 -6 -18 -12 -35 -9
-22 -56 -168 -78 -245 -1 -3 -4 -12 -8 -20 -5 -14 -167 -523 -208 -655 -10
-33 -30 -96 -44 -140 -15 -44 -60 -183 -100 -310 -40 -126 -110 -342 -154
-480 -44 -137 -92 -288 -106 -335 -15 -47 -30 -96 -35 -110 -10 -29 -158 -492
-191 -595 -12 -38 -34 -108 -49 -155 -16 -47 -58 -179 -95 -295 -37 -115 -103
-322 -147 -460 -43 -137 -88 -279 -99 -315 -11 -36 -24 -74 -29 -85 -5 -11
-17 -49 -28 -85 -22 -72 -122 -386 -213 -669 -33 -102 -56 -188 -52 -192 7 -6
220 -78 248 -83 6 -1 53 -16 105 -33 52 -18 217 -71 365 -118 274 -88 307 -98
775 -248 420 -135 1064 -342 1320 -423 129 -42 246 -79 260 -84 14 -5 133 -43
265 -85 132 -42 265 -85 295 -95 46 -15 368 -118 555 -177 28 -9 59 -19 70
-24 11 -4 52 -17 90 -29 83 -25 705 -225 1345 -431 124 -40 230 -74 235 -75 6
-1 30 -9 55 -17 65 -22 1008 -324 1085 -348 17 -5 77 -25 135 -43 328 -107
704 -227 1085 -348 105 -33 199 -64 210 -68 49 -21 276 -87 279 -81 4 6 126
384 251 776 42 132 83 258 90 280 8 22 48 148 90 280 77 241 209 653 290 905
24 74 76 236 115 360 75 236 152 474 177 550 18 55 83 259 128 400 18 58 74
233 125 390 157 489 186 579 255 795 37 116 84 264 106 330 21 66 45 140 53
165 8 25 37 115 64 200 75 233 146 454 147 460 1 3 4 12 8 20 3 8 14 44 26 80
34 110 181 573 196 615 7 22 41 128 75 235 34 107 70 220 80 250 10 30 53 163
95 295 173 542 247 771 255 795 5 14 36 113 70 220 34 107 72 227 85 265 13
39 53 165 90 280 37 116 89 278 115 360 85 262 154 480 155 485 1 7 103 324
125 390 11 30 56 170 100 310 45 140 89 280 100 310 10 30 52 161 93 290 42
129 112 350 157 490 45 140 100 311 122 380 21 69 43 136 48 150 5 14 39 120
75 235 37 116 80 248 95 295 15 47 56 173 90 280 67 212 139 435 174 545 13
39 32 99 44 135 11 36 43 135 70 220 28 85 85 263 127 395 102 319 230 719
266 830 34 105 114 356 229 715 45 140 105 329 135 420 114 352 137 425 139
435 1 6 35 111 75 235 40 124 77 239 82 255 5 17 31 98 58 180 67 207 110 340
176 550 31 99 60 189 64 200 5 11 15 43 24 70 54 171 162 511 182 570 13 39
55 171 95 295 39 124 112 351 161 505 50 154 97 303 105 330 9 28 18 57 21 65
4 8 7 17 8 20 0 3 6 21 12 40 13 38 136 423 263 820 45 140 96 300 114 355 18
55 52 161 76 235 23 74 66 209 95 300 71 218 205 637 300 935 42 132 87 272
100 310 13 39 46 144 75 235 28 91 55 174 60 185 4 11 29 88 55 170 42 135
109 345 153 480 9 28 17 52 17 55 1 5 105 330 180 560 24 74 76 236 115 360
40 124 80 250 90 280 10 30 39 118 63 195 56 175 173 541 282 880 46 143 114
355 150 470 37 116 77 242 90 280 13 39 58 178 100 310 42 132 100 314 130
405 29 91 81 253 115 360 34 107 77 240 95 295 18 55 58 181 90 280 31 99 79
248 105 330 27 83 87 269 134 415 46 146 117 366 157 490 40 124 74 230 75
235 1 6 11 37 22 70 11 33 48 148 82 255 34 107 109 341 167 520 58 179 113
352 123 385 10 33 45 143 78 245 33 102 97 300 142 440 45 140 120 374 167
520 47 146 101 315 120 375 19 61 38 121 43 135 5 14 43 133 85 265 42 132 93
290 113 350 20 61 37 112 37 115 0 3 11 37 23 75 13 39 50 156 84 260 33 105
73 227 87 273 l28 83 37 -118 c20 -65 41 -127 45 -138 5 -11 34 -96 64 -190
73 -225 247 -756 353 -1078 47 -142 87 -265 89 -275 2 -9 12 -42 23 -72 11
-30 93 -278 182 -550 204 -624 354 -1080 390 -1190 16 -47 106 -321 200 -610
95 -289 191 -583 215 -655 23 -71 113 -346 200 -610 86 -264 179 -547 207
-630 27 -82 51 -154 52 -160 2 -5 6 -17 9 -25 3 -8 33 -100 67 -205 57 -175
344 -1052 475 -1450 31 -93 58 -174 59 -180 1 -5 35 -109 75 -230 40 -121 149
-454 243 -740 169 -518 332 -1013 413 -1260 23 -71 109 -332 190 -580 81 -247
169 -515 195 -595 26 -80 114 -347 194 -595 81 -247 150 -457 153 -465 3 -8 7
-19 9 -25 1 -5 22 -71 47 -145 25 -74 113 -344 197 -600 178 -544 348 -1061
420 -1280 28 -85 53 -162 55 -170 2 -8 20 -62 40 -120 20 -58 38 -112 40 -120
2 -8 26 -82 53 -165 101 -305 346 -1050 348 -1060 2 -9 134 -412 249 -760 23
-71 120 -366 215 -655 247 -756 368 -1123 400 -1220 15 -47 96 -294 180 -550
84 -256 174 -530 200 -610 117 -354 354 -1076 356 -1085 1 -5 11 -38 23 -71
12 -34 23 -70 25 -80 2 -11 13 -44 24 -74 19 -51 181 -542 186 -565 2 -5 6
-17 9 -25 9 -22 131 -393 133 -405 1 -5 22 -71 47 -145 24 -74 113 -344 197
-600 83 -256 161 -490 172 -520 11 -30 22 -64 24 -75 2 -11 32 -105 67 -210
35 -104 97 -291 136 -415 40 -124 76 -234 81 -245 8 -17 239 -724 246 -750 1
-5 26 -80 54 -165 28 -85 126 -382 217 -660 230 -704 370 -1130 403 -1230 16
-47 101 -308 190 -580 89 -272 179 -547 200 -610 21 -63 111 -338 200 -610 89
-272 177 -540 195 -595 40 -120 196 -595 409 -1250 87 -264 161 -489 165 -500
5 -11 27 -76 49 -145 22 -69 110 -339 195 -600 86 -261 181 -554 212 -650 31
-96 62 -191 70 -210 7 -19 74 -222 149 -450 74 -228 158 -486 186 -573 28 -86
54 -156 58 -153 7 3 86 29 702 226 135 43 346 111 470 151 124 40 230 74 235
75 6 1 116 37 245 78 129 42 242 78 250 81 42 11 213 65 221 70 5 4 17 8 26
10 10 2 54 15 98 29 44 15 107 35 140 46 33 10 245 78 470 151 226 72 444 141
485 154 41 13 145 46 230 73 85 28 250 81 365 118 444 141 552 176 627 200 43
14 79 25 80 24 2 -1 21 5 43 13 22 9 103 36 180 60 77 25 246 79 375 120 129
42 343 110 475 152 132 42 258 83 280 90 22 7 114 36 205 65 91 28 179 57 195
63 17 7 32 12 35 12 6 1 24 7 190 60 74 24 230 73 345 110 116 37 248 79 295
95 47 15 258 83 470 150 212 67 392 124 400 127 8 3 20 7 25 8 6 2 51 16 100
33 50 16 184 60 298 97 133 43 207 71 204 78 -2 7 -73 221 -156 477 -84 256
-184 560 -221 675 -129 392 -161 490 -164 500 -2 10 -159 490 -251 770 -29 88
-117 356 -195 595 -78 239 -154 473 -170 520 -15 47 -92 281 -170 520 -78 239
-150 460 -160 490 -11 30 -91 278 -180 550 -89 272 -165 506 -170 520 -5 14
-73 221 -151 460 -138 426 -158 486 -292 895 -36 110 -134 409 -217 665 -84
256 -165 503 -180 550 -15 47 -96 294 -180 550 -83 256 -183 562 -222 680 -39
118 -81 247 -93 285 -13 39 -87 266 -166 505 -79 239 -144 440 -145 445 -1 6
-21 66 -44 135 -45 136 -93 284 -315 965 -81 248 -162 495 -180 550 -19 55
-95 289 -170 520 -172 526 -319 979 -350 1070 -13 39 -87 266 -165 505 -78
239 -157 480 -175 535 -18 55 -86 262 -150 460 -65 198 -139 425 -165 505 -52
157 -111 338 -330 1010 -78 239 -152 467 -165 505 -13 39 -92 279 -175 535
-84 256 -192 587 -240 735 -49 149 -105 322 -125 385 -20 63 -42 131 -50 150
-8 19 -64 190 -125 380 -62 190 -131 404 -155 475 -23 72 -100 306 -170 520
-70 215 -142 435 -160 490 -79 241 -184 562 -325 995 -84 256 -169 517 -190
580 -21 63 -98 297 -170 520 -73 223 -148 452 -167 510 -19 58 -36 110 -37
115 -2 9 -155 476 -296 905 -26 80 -103 314 -170 520 -67 206 -132 407 -145
445 -13 39 -90 273 -170 520 -81 248 -164 502 -185 565 -21 63 -97 297 -170
520 -73 223 -149 457 -170 520 -21 63 -97 297 -170 520 -72 223 -153 470 -180
550 -26 80 -75 228 -108 330 -157 484 -357 1095 -387 1185 -18 55 -93 282
-165 505 -73 223 -149 457 -170 520 -21 63 -100 304 -175 535 -75 231 -147
452 -160 490 -13 39 -87 266 -165 505 -78 239 -157 480 -175 535 -18 55 -92
282 -165 505 -73 223 -142 437 -155 475 -13 39 -90 273 -170 520 -81 248 -164
502 -185 565 -87 265 -312 955 -350 1075 -23 72 -49 148 -57 170 -8 22 -16 47
-18 55 -2 8 -25 78 -50 155 -25 77 -79 241 -120 365 -40 124 -124 378 -185
565 -62 187 -113 345 -114 350 -2 6 -6 17 -9 25 -3 8 -60 184 -127 390 -118
363 -272 835 -330 1010 -15 47 -89 274 -165 505 -75 231 -151 465 -170 520
-18 55 -92 282 -165 505 -154 476 -162 500 -169 502 -4 0 -2890 2 -6414 3
-5805 1 -6409 0 -6416 -14z"/>
</g>
</svg>
